<svg width="156" height="43" viewBox="0 0 156 43" fill="none" xmlns="http://www.w3.org/2000/svg">
<g clip-path="url(#clip0_68_2)">
<path fill-rule="evenodd" clip-rule="evenodd" d="M5.72099 7.78902C5.72099 7.31702 6.10599 6.93202 6.57999 6.93202H9.01299V1.22302H5.14999C2.31199 1.22302 0.0109863 3.52402 0.0109863 6.36202V12.166H5.72099V7.78902Z" fill="#206B80"/>
<path fill-rule="evenodd" clip-rule="evenodd" d="M10.1 28.02L6.578 28.014C6.103 28.014 5.72 27.629 5.72 27.157L5.709 15.035H0L0.011 28.584C0.011 31.422 2.373 33.627 5.213 33.627L10.1 33.617V28.02Z" fill="#206B80"/>
<path fill-rule="evenodd" clip-rule="evenodd" d="M26.276 1.22302H11.879V6.93402H24.85C25.324 6.93402 25.706 7.31702 25.706 7.78902V27.061C25.706 27.533 25.326 28.004 24.853 28.004H21.482L21.479 33.627H26.276C29.115 33.627 31.415 31.327 31.415 28.489V6.36202C31.415 3.52402 29.115 1.22302 26.276 1.22302Z" fill="#206B80"/>
<path fill-rule="evenodd" clip-rule="evenodd" d="M39.161 11.58H34.281V17.289H37.734C38.208 17.289 38.59 17.674 38.59 18.147V36.418C38.59 36.891 38.208 37.276 37.734 37.276H19.463C18.991 37.276 18.606 36.891 18.606 36.418V18.147C18.606 17.674 18.991 17.289 19.463 17.289H22.85V11.607L18.035 11.58C15.196 11.58 12.896 13.881 12.896 16.719V37.848C12.896 40.684 15.196 42.985 18.035 42.985H39.161C41.999 42.985 44.299 40.684 44.299 37.848V16.719C44.299 13.881 41.999 11.58 39.161 11.58Z" fill="#206B80"/>
<path fill-rule="evenodd" clip-rule="evenodd" d="M139.096 14.223H136.797V11.725L136.926 11.61C137.235 11.332 137.582 11.096 137.962 10.879C138.341 10.69 138.741 10.537 139.142 10.401C139.68 10.223 140.266 10.164 140.83 10.164C141.545 10.164 142.267 10.336 142.763 10.887C143.105 11.266 143.399 11.723 143.472 12.239L143.476 12.266V12.291C143.476 12.377 143.484 12.465 143.492 12.547C143.509 12.686 143.515 12.826 143.515 12.965V25.209C143.515 25.981 143.643 26.963 144.326 27.45C145.037 27.957 146.061 28.112 146.913 28.151C147.36 28.17 147.808 28.184 148.251 28.17C148.637 28.159 149.021 28.127 149.403 28.075C149.774 28.022 150.145 27.952 150.513 27.864C150.843 27.784 151.174 27.707 151.505 27.633V12.254C151.505 11.844 151.525 11.188 151.785 10.85C152.052 10.504 152.554 10.442 152.96 10.442H154.549C154.96 10.442 155.502 10.494 155.758 10.864C155.991 11.204 156.004 11.856 156.004 12.254L155.964 28.139V34.676C155.964 36.2 155.721 37.844 154.847 39.131C154.11 40.215 153.153 41.063 151.985 41.676C151.497 41.918 150.981 42.112 150.461 42.274C149.907 42.446 149.348 42.594 148.783 42.719C148.256 42.832 147.722 42.918 147.184 42.963C146.805 42.991 146.386 43.018 146.006 42.985C145.387 42.983 144.77 42.965 144.156 42.924C143.553 42.883 142.956 42.791 142.371 42.659C141.804 42.53 141.235 42.403 140.674 42.26C140.349 42.174 139.954 42.057 139.671 41.871C139.392 41.696 139.215 41.428 139.215 41.094C139.215 40.807 139.304 40.491 139.392 40.225C139.502 39.871 139.621 39.512 139.759 39.168C139.867 38.897 140.018 38.629 140.235 38.432C140.461 38.225 140.744 38.133 141.047 38.133C141.374 38.133 141.733 38.217 142.046 38.307C142.602 38.465 143.169 38.586 143.744 38.672C144.514 38.789 145.387 38.766 146.173 38.729C146.884 38.709 147.737 38.674 148.437 38.498C149.285 38.309 150.132 37.973 150.781 37.381C151.422 36.793 151.564 35.871 151.545 35.037L151.512 31.278C151.064 31.637 150.553 31.912 149.986 32.002C149.563 32.094 149.142 32.164 148.714 32.225C148.181 32.301 147.634 32.326 147.101 32.326C145.164 32.366 142.667 32.186 141.056 30.983C139.542 29.856 139.096 28.043 139.096 26.237V14.223ZM134.011 4.39901C133.434 4.39901 132.854 4.37101 132.277 4.31901C131.762 4.27201 131.241 4.26601 130.726 4.31901C130.273 4.36601 129.834 4.47501 129.419 4.66201C129.01 4.84801 128.696 5.16401 128.452 5.53401C128.039 6.16401 127.893 6.95301 127.862 7.69401C127.822 8.63301 127.801 9.57101 127.801 10.512V10.762H132.093C132.665 10.762 133.463 10.848 133.703 11.461C133.878 11.909 133.907 12.493 133.907 12.969C133.907 13.266 133.907 13.567 133.888 13.864C133.874 14.104 133.817 14.352 133.672 14.547C133.508 14.762 133.258 14.86 132.998 14.895C132.704 14.936 132.391 14.938 132.093 14.938H127.801L127.763 30.401C127.761 30.694 127.756 31.026 127.695 31.313C127.638 31.577 127.506 31.807 127.282 31.963C127.061 32.118 126.79 32.176 126.527 32.19C126.216 32.207 125.904 32.211 125.593 32.211C125.237 32.211 124.879 32.209 124.522 32.19C124.265 32.178 123.991 32.131 123.769 31.998C123.513 31.844 123.386 31.59 123.348 31.301C123.309 31.008 123.302 30.696 123.304 30.397L123.344 14.592V10.076C123.344 8.79501 123.39 7.50601 123.526 6.23301C123.638 5.16401 123.922 4.11801 124.466 3.18601C125.018 2.24601 125.773 1.51601 126.751 1.03501C127.822 0.508011 129.071 0.309011 130.242 0.264011C130.999 0.207011 131.759 0.211011 132.518 0.264011C133.249 0.313011 133.976 0.385011 134.697 0.506011C135.06 0.567011 135.573 0.684011 135.762 1.03801C135.954 1.38901 135.777 2.05101 135.679 2.41001C135.553 2.86901 135.381 3.49801 135.143 3.91001C134.901 4.33001 134.472 4.45701 134.011 4.39901ZM114.1 14.502H111.803V12.004L111.93 11.889C112.238 11.612 112.586 11.375 112.968 11.159C113.343 10.969 113.745 10.817 114.147 10.68C114.684 10.502 115.27 10.444 115.834 10.444C116.551 10.444 117.271 10.616 117.767 11.166C118.108 11.545 118.402 12.002 118.476 12.518L118.479 12.545V12.571C118.479 12.657 118.49 12.745 118.496 12.826C118.511 12.965 118.52 13.106 118.52 13.244V30.399C118.52 30.692 118.511 31.026 118.452 31.313C118.398 31.565 118.279 31.791 118.073 31.952C117.86 32.118 117.585 32.176 117.322 32.19C117.012 32.207 116.701 32.211 116.389 32.211C116.034 32.211 115.674 32.209 115.316 32.19C115.063 32.178 114.787 32.131 114.566 31.998C114.313 31.844 114.182 31.59 114.144 31.301C114.104 31.008 114.1 30.696 114.1 30.399V14.502ZM95.263 15.871V28.377C95.413 28.405 95.561 28.43 95.712 28.454C95.982 28.498 96.257 28.547 96.53 28.594C96.87 28.653 97.215 28.686 97.559 28.707C97.999 28.735 98.441 28.746 98.882 28.746C99.391 28.746 99.928 28.703 100.422 28.563C100.757 28.469 101.12 28.354 101.434 28.2C102.064 27.829 102.573 27.295 102.983 26.696C103.479 25.975 103.812 25.172 104.018 24.326C104.317 23.09 104.354 21.653 104.325 20.385C104.292 18.897 103.997 17.389 103.228 16.096C102.655 15.129 101.676 14.684 100.607 14.498C100.151 14.428 99.583 14.455 99.121 14.483C98.354 14.526 97.555 14.78 96.847 15.069C96.298 15.291 95.763 15.555 95.263 15.871ZM95.263 11.934C95.395 11.866 95.524 11.799 95.657 11.731C95.924 11.6 96.193 11.471 96.477 11.344C97.71 10.846 99.025 10.643 100.348 10.643C100.864 10.643 101.395 10.7 101.905 10.764C102.591 10.854 103.254 11.061 103.88 11.352C105.606 12.151 106.839 13.469 107.654 15.18C108.577 17.114 108.901 19.28 108.901 21.407C108.901 22.905 108.689 24.389 108.208 25.809C107.784 27.049 107.206 28.248 106.407 29.282C105.779 30.127 105.002 30.901 104.049 31.377C103.378 31.713 102.636 32.034 101.913 32.198C100.899 32.459 99.848 32.561 98.805 32.567C96.223 32.584 93.453 32.289 91.071 31.225L90.844 31.125L90.805 2.27401C90.805 1.98301 90.815 1.67001 90.872 1.38501C90.924 1.12501 91.038 0.885011 91.251 0.721011C91.464 0.555011 91.736 0.495011 92.001 0.481011C92.311 0.463011 92.624 0.461011 92.934 0.461011C93.29 0.461011 93.649 0.463011 94.005 0.481011C94.261 0.495011 94.537 0.541011 94.758 0.674011C95.006 0.823011 95.139 1.06701 95.196 1.34401C95.255 1.63901 95.263 1.97101 95.263 2.27201V11.934ZM73.664 26.332C74.023 26.989 74.549 27.465 75.219 27.795C76.006 28.182 76.882 28.368 77.753 28.43C78.665 28.496 79.662 28.463 80.537 28.172C81.214 27.946 81.82 27.592 82.294 27.055C82.78 26.504 83.099 25.844 83.302 25.141C83.554 24.276 83.661 23.366 83.685 22.465C83.709 21.465 83.654 20.457 83.491 19.469C83.352 18.621 83.099 17.791 82.681 17.038C82.312 16.369 81.812 15.821 81.165 15.413C80.454 14.961 79.611 14.78 78.779 14.739C77.839 14.696 76.826 14.766 75.949 15.127C75.236 15.418 74.621 15.85 74.142 16.455C73.642 17.086 73.31 17.819 73.102 18.594C72.857 19.51 72.757 20.461 72.757 21.416C72.734 22.323 72.781 23.239 72.931 24.135C73.061 24.901 73.289 25.649 73.664 26.332ZM77.261 32.487C75.794 32.377 74.367 32.028 73.064 31.332C71.373 30.432 70.122 29.114 69.327 27.37C68.417 25.381 68.239 23.102 68.38 20.946C68.477 19.475 68.745 18.018 69.234 16.623C69.679 15.354 70.34 14.192 71.258 13.201C72.169 12.219 73.281 11.516 74.542 11.063C76 10.534 77.6 10.424 79.138 10.524C80.578 10.618 81.994 10.959 83.251 11.686C84.393 12.344 85.338 13.225 86.074 14.319C86.847 15.469 87.343 16.766 87.636 18.118C87.965 19.627 88.076 21.18 88.023 22.727C87.974 24.168 87.747 25.612 87.245 26.967C86.794 28.186 86.115 29.274 85.165 30.166C84.204 31.067 83.059 31.684 81.805 32.075C80.348 32.53 78.777 32.598 77.261 32.487ZM60.974 14.502H58.675V12.004L58.803 11.889C59.111 11.612 59.459 11.375 59.839 11.159C60.218 10.969 60.619 10.817 61.02 10.68C61.558 10.502 62.144 10.444 62.708 10.444C63.423 10.444 64.144 10.616 64.64 11.166C64.982 11.545 65.277 12.002 65.349 12.518L65.353 12.545V12.571C65.353 12.657 65.361 12.745 65.37 12.826C65.386 12.965 65.393 13.106 65.393 13.244V34.916C65.393 36.063 65.238 37.207 64.855 38.291C64.48 39.358 63.845 40.266 63.007 41.024C62.195 41.76 61.255 42.346 60.186 42.618C59.464 42.799 58.618 42.985 57.871 42.985C57.421 42.985 56.593 42.977 56.306 42.563C56.072 42.225 56.058 41.573 56.058 41.176C56.058 40.877 56.06 40.575 56.079 40.28C56.094 40.039 56.148 39.791 56.294 39.598C56.451 39.387 56.693 39.282 56.943 39.231C57.238 39.172 57.57 39.166 57.861 39.166C58.719 39.12 59.46 38.803 60.076 38.188C60.755 37.51 60.974 36.602 60.974 35.668V14.502Z" fill="#393A39"/>
<path fill-rule="evenodd" clip-rule="evenodd" d="M59.925 3.58802C59.925 3.20002 59.931 2.77802 59.995 2.39702C60.051 2.07102 60.187 1.76802 60.447 1.55502C60.701 1.34902 61.018 1.26302 61.34 1.24602C61.727 1.22502 62.119 1.22302 62.509 1.22302C62.952 1.22302 63.4001 1.22502 63.8451 1.24602C64.1771 1.25902 64.5361 1.32302 64.8171 1.51102C65.1111 1.70402 65.266 2.00902 65.323 2.35202C65.388 2.74602 65.393 3.18902 65.393 3.58802V4.45302C65.393 4.84102 65.386 5.26202 65.323 5.64602C65.268 5.97202 65.1321 6.27002 64.8721 6.48302C64.6121 6.69602 64.2841 6.77702 63.9561 6.79402C63.5751 6.81602 63.1921 6.81802 62.8101 6.81802C62.3581 6.81802 61.9021 6.81802 61.4501 6.79402C61.1221 6.78102 60.778 6.71502 60.5 6.53002C60.208 6.33402 60.053 6.02902 59.995 5.68802C59.929 5.29702 59.925 4.85102 59.925 4.45302V3.58802Z" fill="#206B80"/>
<path fill-rule="evenodd" clip-rule="evenodd" d="M113.052 3.58802C113.052 3.20002 113.058 2.77802 113.122 2.39702C113.177 2.07102 113.314 1.76802 113.574 1.55502C113.827 1.34902 114.145 1.26302 114.466 1.24602C114.854 1.22502 115.246 1.22302 115.636 1.22302C116.079 1.22302 116.526 1.22502 116.972 1.24602C117.304 1.25902 117.662 1.32302 117.943 1.51102C118.237 1.70402 118.393 2.00902 118.449 2.35202C118.514 2.74602 118.52 3.18902 118.52 3.58802V4.45302C118.52 4.84102 118.513 5.26202 118.449 5.64602C118.395 5.97202 118.259 6.27002 117.999 6.48302C117.739 6.69602 117.411 6.77702 117.083 6.79402C116.701 6.81602 116.319 6.81802 115.936 6.81802C115.485 6.81802 115.029 6.81802 114.577 6.79402C114.249 6.78102 113.905 6.71502 113.627 6.53002C113.335 6.33402 113.179 6.02902 113.122 5.68802C113.056 5.29702 113.052 4.85102 113.052 4.45302V3.58802Z" fill="#206B80"/>
</g>
<defs>
<clipPath id="clip0_68_2">
<rect width="156" height="43" fill="white"/>
</clipPath>
</defs>
</svg>
